HIERARCHY
ROOT Hips
{
 OFFSET 0.000000 0.000000 0.000000
 CHANNELS 6 Xposition Yposition Zposition Yrotation Xrotation Zrotation
 JOINT Chest
 {
  OFFSET 0.000000 9.683257 -5.635273
  CHANNELS 3 Yrotation Xrotation Zrotation
  JOINT Chest2
  {
   OFFSET 0.000000 6.189608 0.013806
   CHANNELS 3 Yrotation Xrotation Zrotation
   JOINT Chest3
   {
    OFFSET 0.000000 8.853476 -0.007146
    CHANNELS 3 Yrotation Xrotation Zrotation
    JOINT Chest4
    {
     OFFSET 0.000000 11.016752 -0.007858
     CHANNELS 3 Yrotation Xrotation Zrotation
     JOINT Neck
     {
      OFFSET 0.000000 18.039045 0.005489
      CHANNELS 3 Yrotation Xrotation Zrotation
      JOINT Head
      {
       OFFSET 0.000000 10.104523 0.000000
       CHANNELS 3 Yrotation Xrotation Zrotation
       End Site
       {
        OFFSET 0.000000 16.115189 0.000000
       }
      }
     }
     JOINT RightCollar
     {
      OFFSET -3.054660 11.283034 0.002745
      CHANNELS 3 Yrotation Xrotation Zrotation
      JOINT RightShoulder
      {
       OFFSET -15.638414 0.000000 0.000000
       CHANNELS 3 Yrotation Xrotation Zrotation
       JOINT RightElbow
       {
        OFFSET -24.152676 0.000000 0.000000
        CHANNELS 3 Yrotation Xrotation Zrotation
        JOINT RightWrist
        {
         OFFSET -25.995235 0.000000 0.000000
         CHANNELS 3 Yrotation Xrotation Zrotation
         End Site
         {
          OFFSET -17.469086 1.473296 -1.368061
         }
        }
       }
      }
     }
     JOINT LeftCollar
     {
      OFFSET 3.054660 11.283034 0.002745
      CHANNELS 3 Yrotation Xrotation Zrotation
      JOINT LeftShoulder
      {
       OFFSET 15.638414 0.000000 0.000000
       CHANNELS 3 Yrotation Xrotation Zrotation
       JOINT LeftElbow
       {
        OFFSET 24.152676 0.000000 0.000000
        CHANNELS 3 Yrotation Xrotation Zrotation
        JOINT LeftWrist
        {
         OFFSET 25.995235 0.000000 0.000000
         CHANNELS 3 Yrotation Xrotation Zrotation
         End Site
         {
          OFFSET 17.469086 1.473296 -1.368061
         }
        }
       }
      }
     }
    }
   }
  }
 }
 JOINT RightHip
 {
  OFFSET -9.195393 0.017301 -0.003677
  CHANNELS 3 Yrotation Xrotation Zrotation
  JOINT RightKnee
  {
   OFFSET 0.000000 -39.318276 -0.001697
   CHANNELS 3 Yrotation Xrotation Zrotation
   JOINT RightAnkle
   {
    OFFSET 0.000000 -40.321874 -0.002850
    CHANNELS 3 Yrotation Xrotation Zrotation
    JOINT RightToe
    {
     OFFSET 0.000000 -6.381285 16.495073
     CHANNELS 3 Yrotation Xrotation Zrotation
     End Site
     {
      OFFSET 0.000000 -1.342477 5.249975
     }
    }
   }
  }
 }
 JOINT LeftHip
 {
  OFFSET 9.195393 0.017301 -0.003677
  CHANNELS 3 Yrotation Xrotation Zrotation
  JOINT LeftKnee
  {
   OFFSET 0.000000 -39.318276 -0.001697
   CHANNELS 3 Yrotation Xrotation Zrotation
   JOINT LeftAnkle
   {
    OFFSET 0.000000 -40.321874 -0.002850
    CHANNELS 3 Yrotation Xrotation Zrotation
    JOINT LeftToe
    {
     OFFSET 0.000000 -6.381285 16.495073
     CHANNELS 3 Yrotation Xrotation Zrotation
     End Site
     {
      OFFSET 0.000000 -1.342477 5.249975
     }
    }
   }
  }
 }
}
MOTION
Frames: 14
Frame Time: 0.004167
93.641938 84.400577 48.190396 130.988079 29.375270 16.933141 7.438367 -20.539551 -11.680840 3.446544 -10.629676 -4.898234 2.287578 -3.719303 -3.200242 0.449683 9.915434 -0.917363 -8.606997 -3.774012 0.257302 -16.039320 -6.947279 0.929938 4.984164 -4.762641 5.533688 -7.344971 -3.138881 75.403614 8.892069 16.434990 7.682739 1.024631 9.635102 -4.557278 -3.067984 -3.524389 -11.807329 10.546421 -2.195436 -72.852127 -4.202833 1.898588 8.517575 -4.834542 9.737709 -0.825498 -10.398920 -28.989591 -12.475627 -11.988675 56.042216 -7.391981 9.945201 28.710441 3.692851 0.533946 1.177665 0.577741 -3.513524 -27.149542 -17.700970 1.242756 -2.049724 -3.990984 9.477857 -3.892313 7.103236 -0.000000 0.000000 0.000000
93.654222 84.407216 48.201845 130.958404 29.403228 16.913765 7.364755 -20.530443 -11.626231 3.413283 -10.622588 -4.879104 2.265009 -3.713842 -3.189070 0.443962 9.917174 -0.914253 -8.581745 -3.790783 0.255289 -15.992642 -6.978802 0.926944 4.963184 -4.804524 5.512146 -7.405264 -3.094981 75.391721 8.897178 16.398558 7.670882 1.022327 9.632376 -4.559545 -3.091566 -3.536172 -11.827270 10.470705 -2.333149 -72.874766 -4.183028 1.857710 8.492586 -4.839540 9.725999 -0.803881 -10.137941 -29.616848 -12.460356 -12.154504 56.797117 -7.764132 9.280054 28.152062 2.942000 0.473854 1.038155 0.506213 -3.449091 -27.162255 -17.709840 1.378390 -2.021798 -3.979031 9.305746 -3.892267 7.111219 0.000000 -0.000000 -0.000000
93.665946 84.413986 48.214050 130.927232 29.430196 16.893421 7.290744 -20.520226 -11.571402 3.379875 -10.614977 -4.859923 2.242345 -3.708017 -3.177876 0.438217 9.919019 -0.911139 -8.556324 -3.807866 0.254085 -15.945695 -7.010807 0.925467 4.942172 -4.846290 5.490886 -7.466092 -3.051468 75.380411 8.903491 16.362697 7.659588 1.020100 9.629601 -4.562207 -3.115284 -3.548526 -11.845964 10.394678 -2.469407 -72.897988 -4.166274 1.816239 8.468085 -4.844738 9.713938 -0.781920 -9.864430 -30.246956 -12.447542 -12.320953 57.550430 -8.145866 8.614096 27.588423 2.203428 0.386312 0.841026 0.407409 -3.385431 -27.174774 -17.717508 1.512841 -1.993958 -3.967053 9.136656 -3.891904 7.119318 -0.000000 0.000000 -0.000000
93.677451 84.420823 48.226615 130.894611 29.455741 16.872230 7.216379 -20.508742 -11.516418 3.346345 -10.606772 -4.840721 2.219603 -3.701778 -3.166678 0.432451 9.920981 -0.908026 -8.530757 -3.825364 0.253714 -15.898525 -7.043485 0.925566 4.921042 -4.887551 5.469825 -7.526801 -3.008124 75.369718 8.911139 16.327346 7.648913 1.017986 9.626735 -4.565292 -3.139478 -3.561167 -11.863995 10.318300 -2.604723 -72.920621 -4.151369 1.776232 8.443477 -4.849962 9.702072 -0.759953 -9.583051 -30.877007 -12.436945 -12.485756 58.298769 -8.536941 7.953022 27.026388 1.484758 0.284293 0.615085 0.295949 -3.323557 -27.186461 -17.723686 1.640846 -1.966938 -3.955115 8.976743 -3.891279 7.127572 -0.000000 0.000000 0.000000
93.689081 84.427661 48.239146 130.860587 29.479428 16.850312 7.141707 -20.495832 -11.461344 3.312720 -10.597899 -4.821528 2.196802 -3.695073 -3.155497 0.426670 9.923076 -0.904920 -8.505066 -3.843383 0.254202 -15.851181 -7.077026 0.927300 4.899707 -4.927922 5.448878 -7.586738 -2.964728 75.359677 8.920253 16.292443 7.638912 1.016026 9.623737 -4.568831 -3.164491 -3.573814 -11.881948 10.241531 -2.739601 -72.941484 -4.137114 1.739743 8.418150 -4.855040 9.690945 -0.738324 -9.298544 -31.504088 -12.428172 -12.646452 59.038750 -8.937007 7.302151 26.472987 0.793247 0.181023 0.389167 0.185999 -3.264477 -27.196678 -17.728083 1.757145 -1.941465 -3.943297 8.832163 -3.890441 7.136020 0.000000 0.000000 0.000000
93.701178 84.434438 48.251248 130.825208 29.500822 16.827790 7.066774 -20.481341 -11.406246 3.279025 -10.588287 -4.802373 2.173957 -3.687853 -3.144353 0.420876 9.925316 -0.901827 -8.479274 -3.862028 0.255573 -15.803707 -7.111620 0.930729 4.878079 -4.967019 5.427958 -7.645249 -2.921060 75.350322 8.930964 16.257929 7.629643 1.014258 9.620568 -4.572851 -3.190666 -3.586189 -11.900408 10.164322 -2.874533 -72.959392 -4.122314 1.708823 8.391478 -4.859799 9.681099 -0.717377 -9.015738 -32.125286 -12.420666 -12.800360 59.766995 -9.345587 6.666470 25.935393 0.135825 0.089975 0.192129 0.091246 -3.209205 -27.204788 -17.730404 1.856476 -1.918268 -3.931688 8.709070 -3.889434 7.144699 0.000000 0.000000 0.000000
93.714084 84.441088 48.262525 130.788522 29.519489 16.804785 6.991627 -20.465111 -11.351193 3.245285 -10.577863 -4.783287 2.151088 -3.680069 -3.133266 0.415073 9.927717 -0.898753 -8.453405 -3.881403 0.257854 -15.756152 -7.147458 0.935916 4.856070 -5.004456 5.406974 -7.701680 -2.876898 75.341685 8.943402 16.223741 7.621164 1.012721 9.617184 -4.577380 -3.218351 -3.598022 -11.919962 10.086627 -3.010001 -72.973155 -4.105782 1.685524 8.362818 -4.864065 9.673074 -0.697461 -8.739557 -32.737691 -12.413711 -12.944571 60.480123 -9.762061 6.050686 25.420896 -0.480858 0.024915 0.052813 0.024940 -3.158753 -27.210151 -17.730358 1.933580 -1.898070 -3.920383 8.613620 -3.888297 7.153645 -0.000000 0.000000 0.000000
93.728143 84.447547 48.272583 130.750581 29.534995 16.781423 6.916310 -20.446987 -11.296254 3.211525 -10.566556 -4.764303 2.128211 -3.671671 -3.122258 0.409266 9.930292 -0.895704 -8.427480 -3.901613 0.261072 -15.708561 -7.184728 0.942923 4.833591 -5.039851 5.385835 -7.755376 -2.832019 75.333797 8.957696 16.189819 7.613534 1.011454 9.613545 -4.582447 -3.247894 -3.609043 -11.941197 10.008391 -3.146475 -72.981573 -4.086334 1.671898 8.331513 -4.867663 9.667407 -0.678926 -8.475023 -33.338392 -12.406424 -13.075925 61.174753 -10.185651 5.459288 24.936870 -1.050387 0.000000 0.000000 -0.000000 -3.114132 -27.212128 -17.727648 1.983194 -1.881597 -3.909483 8.551968 -3.887067 7.162892 0.000000 0.000000 0.000000
93.742774 84.453835 48.282006 130.709614 29.547086 16.757696 6.841603 -20.425985 -11.241799 3.178132 -10.553922 -4.745538 2.105598 -3.662351 -3.111389 0.403529 9.933128 -0.892699 -8.401480 -3.923351 0.265481 -15.660928 -7.224690 0.952304 4.810510 -5.073342 5.364597 -7.807773 -2.787603 75.326781 8.974762 16.156013 7.606823 1.010425 9.609583 -4.588599 -3.278781 -3.619556 -11.963197 9.928612 -3.284536 -72.985918 -4.065370 1.665694 8.297368 -4.870744 9.663561 -0.660351 -8.212379 -33.930958 -12.400730 -13.181802 61.861160 -10.605862 4.865361 24.474422 -1.584930 -0.000000 0.000000 -0.000000 -3.075805 -27.211236 -17.722020 2.008319 -1.868577 -3.899201 8.523388 -3.885784 7.172928 0.000000 -0.000000 -0.000000
93.757235 84.460036 48.291597 130.664447 29.556075 16.733468 6.767954 -20.401649 -11.188009 3.145328 -10.539755 -4.727043 2.083405 -3.651969 -3.100678 0.397907 9.936263 -0.889741 -8.375364 -3.946941 0.271218 -15.613196 -7.267929 0.964349 4.786837 -5.105441 5.343391 -7.860494 -2.744632 75.320689 8.995037 16.122295 7.601030 1.009579 9.605298 -4.596153 -3.310311 -3.630050 -11.984737 9.846697 -3.424016 -72.988269 -4.045090 1.663241 8.260955 -4.873581 9.660609 -0.640451 -7.939854 -34.520809 -12.398785 -13.255608 62.549993 -11.014574 4.245653 24.020798 -2.100189 0.000000 -0.000000 0.000000 -3.042969 -27.208499 -17.713624 2.016600 -1.858042 -3.889589 8.520704 -3.884416 7.184018 0.000000 -0.000000 -0.000000
93.771624 84.466179 48.301289 130.616020 29.562372 16.708673 6.694917 -20.374615 -11.134667 3.112886 -10.524343 -4.708744 2.061471 -3.640721 -3.090088 0.392356 9.939643 -0.886821 -8.349124 -3.971932 0.278135 -15.565336 -7.313631 0.978724 4.762691 -5.136317 5.322238 -7.913168 -2.702590 75.315442 9.017936 16.088785 7.596100 1.008921 9.600747 -4.604784 -3.342547 -3.640540 -12.005934 9.763206 -3.564256 -72.988647 -4.025522 1.664454 8.222757 -4.876190 9.658498 -0.619787 -7.659565 -35.107824 -12.399902 -13.303321 63.238353 -11.414843 3.610010 23.577653 -2.595340 0.000000 0.000000 0.000000 -3.014729 -27.204038 -17.702777 2.009749 -1.849664 -3.880501 8.540394 -3.882891 7.195859 0.000000 -0.000000 0.000000
93.786039 84.472294 48.311013 130.565270 29.566386 16.683242 6.622045 -20.345516 -11.081555 3.080578 -10.507972 -4.690563 2.039639 -3.628807 -3.079577 0.386832 9.943212 -0.883925 -8.322752 -3.997872 0.286080 -15.517319 -7.360979 0.995096 4.738191 -5.166140 5.301155 -7.965423 -2.660960 75.310955 9.042872 16.055604 7.591974 1.008454 9.595991 -4.614170 -3.375552 -3.651039 -12.026910 9.678699 -3.704594 -72.987083 -4.006688 1.669250 8.183255 -4.878592 9.657176 -0.598924 -7.373678 -35.691890 -12.403352 -13.331365 63.923243 -11.810317 2.968268 23.146631 -3.069737 -0.000000 -0.000000 -0.000000 -2.990192 -27.197975 -17.689796 1.989479 -1.843115 -3.871787 8.578941 -3.881140 7.208151 0.000000 -0.000000 -0.000000
93.800578 84.478411 48.320704 130.513138 29.568528 16.657108 6.548889 -20.314985 -11.028446 3.048179 -10.490930 -4.672425 2.017749 -3.616426 -3.069103 0.381291 9.946913 -0.881041 -8.296241 -4.024311 0.294900 -15.469115 -7.409158 1.013127 4.713459 -5.195080 5.280164 -8.016888 -2.619226 75.307139 9.069257 16.022873 7.588586 1.008178 9.591088 -4.623989 -3.409390 -3.661564 -12.047785 9.593736 -3.844367 -72.983619 -3.988608 1.677549 8.142932 -4.880812 9.656585 -0.578424 -7.084409 -36.272908 -12.408362 -13.346694 64.601573 -12.205313 2.330254 22.729338 -3.522906 -0.000000 0.000000 0.000000 -2.968465 -27.190433 -17.675001 1.957501 -1.838070 -3.863294 8.632823 -3.879096 7.220595 -0.000000 -0.000000 -0.000000
93.815340 84.484560 48.330293 130.460562 29.569212 16.630202 6.475000 -20.283653 -10.975114 3.015461 -10.473502 -4.654248 1.995641 -3.603774 -3.058623 0.375689 9.950692 -0.878157 -8.269585 -4.050799 0.304442 -15.420696 -7.457355 1.032478 4.688617 -5.223307 5.259282 -8.067191 -2.576874 75.303900 9.096503 15.990713 7.585870 1.008089 9.586102 -4.633920 -3.444124 -3.672131 -12.068679 9.508875 -3.982914 -72.978308 -3.971297 1.689270 8.102271 -4.882877 9.656666 -0.558850 -6.794030 -36.850791 -12.414113 -13.356867 65.270168 -12.604903 1.705803 22.327311 -3.954517 -0.000000 0.000000 0.000000 -2.948653 -27.181535 -17.658709 1.915528 -1.834206 -3.854869 8.698521 -3.876692 7.232892 -0.000000 -0.000000 -0.000000
